<svg version="1.1" id="Layer_1" xmlns="http://www.w3.org/2000/svg" xmlns:xlink="http://www.w3.org/1999/xlink" x="0px" y="0px"
	 width="100%" viewBox="0 0 500 500" enable-background="new 0 0 500 500" xml:space="preserve">
<path fill="#010101" opacity="1.000000" stroke="none" 
	d="
M501.000000,191.000000 
	C501.000000,294.666656 501.000000,397.833282 501.000000,500.999939 
	C334.333405,500.999969 167.666794,500.999969 1.000145,501.000000 
	C1.000097,334.333435 1.000097,167.666870 1.000048,1.000234 
	C167.666519,1.000156 334.333038,1.000156 500.999786,1.000078 
	C501.000000,64.166664 501.000000,127.333336 501.000000,191.000000 
M75.921242,349.141785 
	C81.947304,349.081116 87.973373,349.020447 94.918503,349.149658 
	C99.238937,349.164429 103.571503,349.381348 107.875526,349.122833 
	C110.741150,348.950745 111.947502,350.100159 112.896645,352.639740 
	C116.148254,361.339996 119.569725,369.978943 123.093826,378.572632 
	C123.568253,379.729492 124.974617,381.280029 125.993187,381.313416 
	C133.225143,381.550354 140.468491,381.439575 148.323044,381.439575 
	C144.607590,372.355255 141.330902,364.217194 137.954514,356.120697 
	C133.807938,346.177429 129.578125,336.268860 125.295319,325.635651 
	C122.502525,318.757355 119.709724,311.879059 116.890373,304.307281 
	C116.324608,303.305450 115.758842,302.303619 115.157593,300.626801 
	C112.143341,293.340393 109.129097,286.053955 106.028122,278.048828 
	C104.797684,274.984222 103.567245,271.919586 102.226303,268.102692 
	C100.829559,264.540680 99.713928,260.826660 97.907562,257.486145 
	C97.104897,256.001770 94.971115,254.474930 93.332985,254.345917 
	C88.198090,253.941574 83.011566,254.193329 77.845047,254.190094 
	C69.738480,254.184998 69.738480,254.184708 67.146408,262.738037 
	C65.287735,267.469849 63.429058,272.201691 61.114979,277.432251 
	C60.078766,280.288757 59.042553,283.145264 57.555714,286.538727 
	C56.342369,289.692474 55.129025,292.846191 53.478035,296.467987 
	C53.263977,297.290375 53.049915,298.112762 52.323341,299.395355 
	C50.925327,302.931152 49.527317,306.466949 47.719620,310.622101 
	C45.995541,315.122589 44.271458,319.623077 42.055458,324.687195 
	C34.396057,343.371033 26.736658,362.054901 18.793930,381.429871 
	C26.148874,381.429871 32.622257,381.333221 39.090347,381.476074 
	C41.788536,381.535645 43.095890,380.712280 44.132030,378.006042 
	C47.868782,368.246124 52.010780,358.641357 56.877457,349.137817 
	C59.251366,349.072601 61.625278,349.007416 64.900063,349.126373 
	C68.266876,349.070160 71.633698,349.013977 75.921242,349.141785 
M128.499741,20.734808 
	C122.348549,20.849047 116.188461,20.790087 110.047585,21.105295 
	C66.221527,23.354870 31.427090,57.380135 28.114023,101.138443 
	C25.127449,140.584549 53.576622,179.268417 91.855637,188.758026 
	C105.863335,192.230621 119.910751,191.927734 134.046448,191.922882 
	C221.855057,191.892746 309.665985,192.198822 397.471130,191.627182 
	C432.963074,191.396118 459.981110,174.857056 475.594269,142.798904 
	C488.909332,115.459343 487.356964,87.603592 471.011810,61.769985 
	C453.411469,33.952515 426.962463,20.909264 394.396454,20.825689 
	C306.098114,20.599091 217.798859,20.740850 128.499741,20.734808 
M31.662697,412.732788 
	C28.292959,412.235992 27.954041,414.157593 27.961832,416.902100 
	C28.017181,436.396332 27.944841,455.890930 27.943741,475.385406 
	C27.943678,476.485596 28.213360,477.585785 28.356350,478.677246 
	C180.362091,478.677246 332.051392,478.677246 483.826141,478.677246 
	C483.826141,456.568604 483.826141,434.867859 483.826141,412.725067 
	C333.140625,412.725067 182.885941,412.725067 31.662697,412.732788 
M296.500061,268.171387 
	C251.240311,268.171387 205.980560,268.171387 160.492493,268.171387 
	C160.492493,290.612610 160.492493,312.461029 160.492493,334.277405 
	C268.552460,334.277405 376.198608,334.277405 483.779358,334.277405 
	C483.779358,312.071442 483.779358,290.357635 483.779358,268.172058 
	C421.373535,268.172058 359.436829,268.172058 296.500061,268.171387 
z"/>
<path fill="#A0A0A0" opacity="1.000000" stroke="none" 
	d="
M128.999847,20.735678 
	C217.798859,20.740850 306.098114,20.599091 394.396454,20.825689 
	C426.962463,20.909264 453.411469,33.952515 471.011810,61.769985 
	C487.356964,87.603592 488.909332,115.459343 475.594269,142.798904 
	C459.981110,174.857056 432.963074,191.396118 397.471130,191.627182 
	C309.665985,192.198822 221.855057,191.892746 134.046448,191.922882 
	C119.910751,191.927734 105.863335,192.230621 91.855637,188.758026 
	C53.576622,179.268417 25.127449,140.584549 28.114023,101.138443 
	C31.427090,57.380135 66.221527,23.354870 110.047585,21.105295 
	C116.188461,20.790087 122.348549,20.849047 128.999847,20.735678 
M390.406677,79.251701 
	C315.102478,79.252296 239.798279,79.225784 164.494125,79.274025 
	C147.340729,79.285011 130.151901,78.925461 113.044846,79.893417 
	C97.887474,80.751053 88.264580,93.242035 89.124992,108.854553 
	C89.860413,122.198853 101.498711,133.041382 115.574440,133.052841 
	C209.372910,133.129242 303.171478,133.167007 396.969910,133.099716 
	C413.854279,133.087601 426.204041,116.844917 422.237488,100.424324 
	C418.862854,86.454216 408.411499,79.287056 390.406677,79.251701 
z"/>
<path fill="#9F9F9F" opacity="1.000000" stroke="none" 
	d="
M32.146984,412.728943 
	C182.885941,412.725067 333.140625,412.725067 483.826141,412.725067 
	C483.826141,434.867859 483.826141,456.568604 483.826141,478.677246 
	C332.051392,478.677246 180.362091,478.677246 28.356350,478.677246 
	C28.213360,477.585785 27.943678,476.485596 27.943741,475.385406 
	C27.944841,455.890930 28.017181,436.396332 27.961832,416.902100 
	C27.954041,414.157593 28.292959,412.235992 32.146984,412.728943 
z"/>
<path fill="#9F9F9F" opacity="1.000000" stroke="none" 
	d="
M297.000092,268.171722 
	C359.436829,268.172058 421.373535,268.172058 483.779358,268.172058 
	C483.779358,290.357635 483.779358,312.071442 483.779358,334.277405 
	C376.198608,334.277405 268.552460,334.277405 160.492493,334.277405 
	C160.492493,312.461029 160.492493,290.612610 160.492493,268.171387 
	C205.980560,268.171387 251.240311,268.171387 297.000092,268.171722 
z"/>
<path fill="#9F9F9F" opacity="1.000000" stroke="none" 
	d="
M116.916924,305.000763 
	C119.709724,311.879059 122.502525,318.757355 125.085175,326.293640 
	C122.770775,330.988770 120.666519,335.025940 118.726364,338.748291 
	C115.802223,339.532776 112.787094,340.151855 109.907578,341.158722 
	C105.582253,342.671112 101.307533,344.353577 97.109207,346.187805 
	C95.899780,346.716187 95.026718,348.014465 93.999443,348.959778 
	C87.973373,349.020447 81.947304,349.081116 75.361626,348.705322 
	C71.219337,343.614777 67.247154,343.862366 63.999187,348.942200 
	C61.625278,349.007416 59.251366,349.072601 56.361832,348.715088 
	C54.819748,346.610413 53.717289,344.969604 52.780453,343.239136 
	C49.339680,336.883392 45.953873,330.497864 42.547382,324.123566 
	C44.271458,319.623077 45.995541,315.122589 48.278328,310.277466 
	C54.890697,307.240692 55.708534,304.991455 52.835854,298.935150 
	C53.049915,298.112762 53.263977,297.290375 54.018692,296.113159 
	C56.147263,293.703644 57.968292,291.775391 59.190662,289.522400 
	C59.592785,288.781219 58.445259,287.199249 58.006340,286.001770 
	C59.042553,283.145264 60.078766,280.288757 61.767727,277.269592 
	C69.187523,277.956604 75.864098,279.017059 80.420898,285.196533 
	C76.534729,295.020508 72.715157,304.509247 68.624298,314.025574 
	C67.897621,314.343445 67.442245,314.633667 66.986877,314.923889 
	C67.367393,315.294189 67.747910,315.664490 68.134567,316.403259 
	C66.631157,320.799774 65.121620,324.827820 63.474846,329.222046 
	C68.561516,329.469330 72.782188,329.674530 77.032051,330.262451 
	C77.809738,333.636841 78.558235,336.628479 79.294075,339.569519 
	C86.094154,339.503174 90.231400,336.029755 91.399597,329.754150 
	C95.452904,329.443054 99.104691,329.281830 103.139336,329.103668 
	C101.830528,325.262482 100.735481,322.048645 99.705429,318.421265 
	C99.184593,316.671753 98.598747,315.335815 97.761093,313.742432 
	C94.187187,305.051056 90.865074,296.617096 87.753342,287.942139 
	C86.939163,285.801056 85.914619,283.900970 84.674622,281.813202 
	C84.305138,281.087585 84.151115,280.549713 83.894882,279.903534 
	C83.531746,279.619263 83.250839,279.586304 82.961868,279.815063 
	C82.973778,279.933685 82.736465,279.957184 82.386459,279.927734 
	C74.329826,276.358459 69.086899,270.819061 67.658554,262.183563 
	C69.738480,254.184708 69.738480,254.184998 77.845047,254.190094 
	C83.011566,254.193329 88.198090,253.941574 93.332985,254.345917 
	C94.971115,254.474930 97.104897,256.001770 97.907562,257.486145 
	C99.713928,260.826660 100.829559,264.540680 101.961288,268.712830 
	C101.458702,272.359497 101.221130,275.396057 100.983559,278.432617 
	C102.693985,278.544250 104.404419,278.655884 106.114845,278.767517 
	C109.129097,286.053955 112.143341,293.340393 115.163284,301.341797 
	C115.751625,303.038086 116.334274,304.019440 116.916924,305.000763 
z"/>
<path fill="#9C9C9C" opacity="1.000000" stroke="none" 
	d="
M94.458977,349.054718 
	C95.026718,348.014465 95.899780,346.716187 97.109207,346.187805 
	C101.307533,344.353577 105.582253,342.671112 109.907578,341.158722 
	C112.787094,340.151855 115.802223,339.532776 118.726364,338.748291 
	C120.666519,335.025940 122.770775,330.988770 125.129654,326.648438 
	C129.578125,336.268860 133.807938,346.177429 137.954514,356.120697 
	C141.330902,364.217194 144.607590,372.355255 148.323044,381.439575 
	C140.468491,381.439575 133.225143,381.550354 125.993187,381.313416 
	C124.974617,381.280029 123.568253,379.729492 123.093826,378.572632 
	C119.569725,369.978943 116.148254,361.339996 112.896645,352.639740 
	C111.947502,350.100159 110.741150,348.950745 107.875526,349.122833 
	C103.571503,349.381348 99.238937,349.164429 94.458977,349.054718 
z"/>
<path fill="#9C9C9C" opacity="1.000000" stroke="none" 
	d="
M42.301422,324.405396 
	C45.953873,330.497864 49.339680,336.883392 52.780453,343.239136 
	C53.717289,344.969604 54.819748,346.610413 55.922962,348.635193 
	C52.010780,358.641357 47.868782,368.246124 44.132030,378.006042 
	C43.095890,380.712280 41.788536,381.535645 39.090347,381.476074 
	C32.622257,381.333221 26.148874,381.429871 18.793930,381.429871 
	C26.736658,362.054901 34.396057,343.371033 42.301422,324.405396 
z"/>
<path fill="#9C9C9C" opacity="1.000000" stroke="none" 
	d="
M67.402481,262.460815 
	C69.086899,270.819061 74.329826,276.358459 82.314835,280.257263 
	C81.891296,282.031281 81.189400,283.446259 80.487503,284.861267 
	C75.864098,279.017059 69.187523,277.956604 61.995430,277.020233 
	C63.429058,272.201691 65.287735,267.469849 67.402481,262.460815 
z"/>
<path fill="#9C9C9C" opacity="1.000000" stroke="none" 
	d="
M106.071487,278.408173 
	C104.404419,278.655884 102.693985,278.544250 100.983559,278.432617 
	C101.221130,275.396057 101.458702,272.359497 102.016541,269.088959 
	C103.567245,271.919586 104.797684,274.984222 106.071487,278.408173 
z"/>
<path fill="#9C9C9C" opacity="1.000000" stroke="none" 
	d="
M52.579597,299.165253 
	C55.708534,304.991455 54.890697,307.240692 48.483170,309.967773 
	C49.527317,306.466949 50.925327,302.931152 52.579597,299.165253 
z"/>
<path fill="#9C9C9C" opacity="1.000000" stroke="none" 
	d="
M64.449623,349.034302 
	C67.247154,343.862366 71.219337,343.614777 74.901260,348.613342 
	C71.633698,349.013977 68.266876,349.070160 64.449623,349.034302 
z"/>
<path fill="#9C9C9C" opacity="1.000000" stroke="none" 
	d="
M57.781029,286.270264 
	C58.445259,287.199249 59.592785,288.781219 59.190662,289.522400 
	C57.968292,291.775391 56.147263,293.703644 54.237511,295.879150 
	C55.129025,292.846191 56.342369,289.692474 57.781029,286.270264 
z"/>
<path fill="#9C9C9C" opacity="1.000000" stroke="none" 
	d="
M116.903648,304.654022 
	C116.334274,304.019440 115.751625,303.038086 115.181023,301.679260 
	C115.758842,302.303619 116.324608,303.305450 116.903648,304.654022 
z"/>
<path fill="#010101" opacity="1.000000" stroke="none" 
	d="
M390.890045,79.255287 
	C408.411499,79.287056 418.862854,86.454216 422.237488,100.424324 
	C426.204041,116.844917 413.854279,133.087601 396.969910,133.099716 
	C303.171478,133.167007 209.372910,133.129242 115.574440,133.052841 
	C101.498711,133.041382 89.860413,122.198853 89.124992,108.854553 
	C88.264580,93.242035 97.887474,80.751053 113.044846,79.893417 
	C130.151901,78.925461 147.340729,79.285011 164.494125,79.274025 
	C239.798279,79.225784 315.102478,79.252296 390.890045,79.255287 
z"/>
<path fill="#040404" opacity="1.000000" stroke="none" 
	d="
M80.420898,285.196533 
	C81.189400,283.446259 81.891296,282.031281 82.664833,280.286743 
	C82.736465,279.957184 82.973778,279.933685 83.234947,279.856323 
	C83.663109,279.856567 83.830101,279.934204 83.997093,280.011810 
	C84.151115,280.549713 84.305138,281.087585 84.699951,282.158630 
	C85.808144,284.522247 86.675552,286.352692 87.542969,288.183167 
	C90.865074,296.617096 94.187187,305.051056 97.760689,314.112854 
	C98.554871,316.105408 99.097656,317.470093 99.640434,318.834778 
	C100.735481,322.048645 101.830528,325.262482 103.139336,329.103668 
	C99.104691,329.281830 95.452904,329.443054 90.948586,329.632294 
	C85.731651,329.733429 81.367256,329.806580 77.002861,329.879700 
	C72.782188,329.674530 68.561516,329.469330 63.474846,329.222046 
	C65.121620,324.827820 66.631157,320.799774 68.353821,316.215759 
	C68.676491,315.105835 68.786041,314.551880 68.895592,313.997955 
	C72.715157,304.509247 76.534729,295.020508 80.420898,285.196533 
z"/>
<path fill="#9C9C9C" opacity="1.000000" stroke="none" 
	d="
M77.032051,330.262451 
	C81.367256,329.806580 85.731651,329.733429 90.547058,329.782166 
	C90.231400,336.029755 86.094154,339.503174 79.294075,339.569519 
	C78.558235,336.628479 77.809738,333.636841 77.032051,330.262451 
z"/>
<path fill="#9C9C9C" opacity="1.000000" stroke="none" 
	d="
M87.753342,287.942139 
	C86.675552,286.352692 85.808144,284.522247 84.915405,282.346344 
	C85.914619,283.900970 86.939163,285.801056 87.753342,287.942139 
z"/>
<path fill="#9C9C9C" opacity="1.000000" stroke="none" 
	d="
M99.705437,318.421265 
	C99.097656,317.470093 98.554871,316.105408 98.012497,314.370300 
	C98.598747,315.335815 99.184593,316.671753 99.705437,318.421265 
z"/>
<path fill="#9C9C9C" opacity="1.000000" stroke="none" 
	d="
M68.624298,314.025574 
	C68.786041,314.551880 68.676491,315.105835 68.347687,315.847290 
	C67.747910,315.664490 67.367393,315.294189 66.986877,314.923889 
	C67.442245,314.633667 67.897621,314.343445 68.624298,314.025574 
z"/>
<path fill="#9C9C9C" opacity="1.000000" stroke="none" 
	d="
M83.894882,279.903534 
	C83.830101,279.934204 83.663109,279.856567 83.223038,279.737671 
	C83.250839,279.586304 83.531746,279.619263 83.894882,279.903534 
z"/>
</svg>